<svg width="30" height="30" viewBox="0 0 30 30" fill="none" xmlns="http://www.w3.org/2000/svg">
<path d="M13.6523 0.0585957C10.7578 0.339846 8.08594 1.40625 5.74219 3.21094C4.59961 4.08985 3.11719 5.74219 2.26172 7.08985C1.89258 7.66992 1.17188 9.14649 0.914062 9.84961C0.626953 10.6348 0.316406 11.8418 0.164062 12.7734C-0.0175781 13.916 -0.0175781 16.084 0.164062 17.2266C0.427734 18.8438 0.84375 20.1445 1.55273 21.5918C2.32617 23.168 3.12891 24.2871 4.41797 25.582C5.71289 26.8711 6.83203 27.6738 8.4082 28.4473C9.85547 29.1563 11.1562 29.5723 12.7734 29.8359C13.916 30.0176 16.084 30.0176 17.2266 29.8359C18.8438 29.5723 20.1445 29.1563 21.5918 28.4473C23.168 27.6738 24.2871 26.8711 25.582 25.582C26.8711 24.2871 27.6738 23.168 28.4473 21.5918C28.9629 20.543 29.2207 19.8574 29.502 18.8027C29.8711 17.3965 29.959 16.6289 29.959 15C29.959 13.3711 29.8711 12.6035 29.502 11.1973C29.2207 10.1426 28.9629 9.45703 28.4473 8.40821C27.6738 6.83203 26.8711 5.71289 25.582 4.41797C24.2871 3.12891 23.168 2.32617 21.5918 1.55274C20.1504 0.843752 18.8145 0.421877 17.2559 0.175783C16.3945 0.0410175 14.4727 -0.0234356 13.6523 0.0585957ZM22.6699 8.93555C23.6836 9.20508 24.3398 10.2129 24.1934 11.2793C24.0996 11.959 24.2285 11.8184 18.9316 17.127C13.2715 22.7988 13.6582 22.4707 12.6855 22.4707C11.7598 22.4707 11.8594 22.5527 8.7832 19.4648C6.84961 17.5254 6.08203 16.7168 5.98828 16.5234C5.72461 15.9609 5.72461 15.1992 5.99414 14.6484C6.17578 14.2793 6.62109 13.8516 7.01953 13.6641C7.30664 13.5293 7.42969 13.5059 7.88086 13.5059C8.77148 13.5059 8.84766 13.5586 10.9277 15.6445L12.6855 17.4023L16.7871 13.3066C19.5527 10.5469 20.9707 9.16992 21.1348 9.08789C21.6211 8.8418 22.1426 8.79492 22.6699 8.93555Z" fill="#63C96D"/>
</svg>
